<?xml version="1.0" encoding="UTF-8" standalone="no"?>
<svg width="514px" height="513px" viewBox="0 0 514 513" version="1.1" xmlns="http://www.w3.org/2000/svg" xmlns:xlink="http://www.w3.org/1999/xlink" xmlns:sketch="http://www.bohemiancoding.com/sketch/ns">
    <!-- Generator: Sketch 3.3.3 (12081) - http://www.bohemiancoding.com/sketch -->
    <title>social</title>
    <desc>Created with Sketch.</desc>
    <defs></defs>
    <g id="Page-1" stroke="none" stroke-width="1" fill="none" fill-rule="evenodd" sketch:type="MSPage">
        <g id="social" sketch:type="MSLayerGroup" fill="#000000">
            <g id="Group" sketch:type="MSShapeGroup">
                <g id="github" transform="translate(0.385621, 0.323529)">
                    <path d="M256.375,0 C291.925667,0 325.23,6.7275 356.287042,20.1825 C387.347915,33.6375 414.497333,51.9675 437.741042,75.1725 C460.986667,98.3775 479.348,125.4825 492.826,156.4875 C506.30017,187.4925 513.040127,220.74 513.040127,256.23 C513.040127,291.719044 506.30017,324.968456 492.826,355.9725 C479.348,386.979412 460.986667,414.081544 437.741042,437.2875 C414.497333,460.491544 387.346,478.821544 356.287042,492.276544 C325.229042,505.731544 291.925667,512.458088 256.375,512.458088 C220.824333,512.458088 187.52,505.731544 156.462,492.278456 C125.404,478.823456 98.2526667,460.493456 75.008,437.289412 C51.7633333,414.083456 33.4996667,386.978456 20.217,355.974412 C6.93433333,324.968456 0.293,291.72 0.293,256.23 C0.293,220.74 6.93433333,187.4925 20.217,156.4875 C33.4996667,125.4825 51.7633333,98.3775 75.008,75.1725 C98.2526667,51.9675 125.404,33.6375 156.462,20.1825 C187.52,6.7275 220.824333,0 256.375,0 L256.375,0 Z M256.375,28.08 C224.731,28.08 195.040333,34.0275 167.303,45.9225 C139.565667,57.8175 115.344333,74.1 94.639,94.77 C73.9336667,115.44 57.6233333,139.62 45.708,167.31 C33.7926667,195 27.835,224.64 27.835,256.23 C27.835,287.819044 33.7926667,317.459044 45.708,345.15 C57.6233333,372.840956 73.9336667,397.02 94.639,417.690956 C115.344333,438.36 139.565667,454.643456 167.303,466.538456 C195.040333,478.4325 224.731,484.380956 256.375,484.380956 C288.019,484.380956 317.709667,478.4325 345.447958,466.538456 C373.184333,454.646324 397.406624,438.36 418.111,417.690956 C438.817291,397.02 455.126667,372.840956 467.042,345.15 C478.958291,317.457132 484.915,287.817132 484.915,256.23 C484.915,224.641912 478.958291,195 467.042,167.31 C455.129539,139.62 438.817291,115.44 418.111,94.77 C397.406624,74.1 373.184333,57.8175 345.447958,45.9225 C317.709667,34.0275 288.019,28.08 256.375,28.08 L256.375,28.08 Z" id="Shape"></path>
                </g>
            </g>
            <g id="social-1" transform="translate(1.000000, 2.000000)" sketch:type="MSShapeGroup">
                <g id="Group">
                    <path d="M316.75,216.812 L272.219,216.812 L272.219,184.312 C272.219,174.343 282.531,172.031 287.344,172.031 L316.111,172.031 L316.111,128.172 L283.141,128 C238.158,128 227.891,160.703 227.891,181.672 L227.891,216.813 L195.25,216.813 L195.25,262 L227.891,262 L227.891,384 L272.219,384 L272.219,262 L309.875,262 L316.75,216.812 L316.75,216.812 Z" id="Shape"></path>
                </g>
            </g>
        </g>
    </g>
</svg>