<?xml version="1.0" encoding="UTF-8" standalone="no"?>
<svg width="514px" height="513px" viewBox="0 0 514 513" version="1.1" xmlns="http://www.w3.org/2000/svg" xmlns:xlink="http://www.w3.org/1999/xlink" xmlns:sketch="http://www.bohemiancoding.com/sketch/ns">
    <!-- Generator: Sketch 3.3.3 (12081) - http://www.bohemiancoding.com/sketch -->
    <title>social</title>
    <desc>Created with Sketch.</desc>
    <defs></defs>
    <g id="Page-1" stroke="none" stroke-width="1" fill="none" fill-rule="evenodd" sketch:type="MSPage">
        <g id="social" sketch:type="MSLayerGroup" fill="#000000">
            <g id="Group" sketch:type="MSShapeGroup">
                <g id="github" transform="translate(0.385621, 0.323529)">
                    <path d="M256.375,0 C291.925667,0 325.23,6.7275 356.287042,20.1825 C387.347915,33.6375 414.497333,51.9675 437.741042,75.1725 C460.986667,98.3775 479.348,125.4825 492.826,156.4875 C506.30017,187.4925 513.040127,220.74 513.040127,256.23 C513.040127,291.719044 506.30017,324.968456 492.826,355.9725 C479.348,386.979412 460.986667,414.081544 437.741042,437.2875 C414.497333,460.491544 387.346,478.821544 356.287042,492.276544 C325.229042,505.731544 291.925667,512.458088 256.375,512.458088 C220.824333,512.458088 187.52,505.731544 156.462,492.278456 C125.404,478.823456 98.2526667,460.493456 75.008,437.289412 C51.7633333,414.083456 33.4996667,386.978456 20.217,355.974412 C6.93433333,324.968456 0.293,291.72 0.293,256.23 C0.293,220.74 6.93433333,187.4925 20.217,156.4875 C33.4996667,125.4825 51.7633333,98.3775 75.008,75.1725 C98.2526667,51.9675 125.404,33.6375 156.462,20.1825 C187.52,6.7275 220.824333,0 256.375,0 L256.375,0 Z M256.375,28.08 C224.731,28.08 195.040333,34.0275 167.303,45.9225 C139.565667,57.8175 115.344333,74.1 94.639,94.77 C73.9336667,115.44 57.6233333,139.62 45.708,167.31 C33.7926667,195 27.835,224.64 27.835,256.23 C27.835,287.819044 33.7926667,317.459044 45.708,345.15 C57.6233333,372.840956 73.9336667,397.02 94.639,417.690956 C115.344333,438.36 139.565667,454.643456 167.303,466.538456 C195.040333,478.4325 224.731,484.380956 256.375,484.380956 C288.019,484.380956 317.709667,478.4325 345.447958,466.538456 C373.184333,454.646324 397.406624,438.36 418.111,417.690956 C438.817291,397.02 455.126667,372.840956 467.042,345.15 C478.958291,317.457132 484.915,287.817132 484.915,256.23 C484.915,224.641912 478.958291,195 467.042,167.31 C455.129539,139.62 438.817291,115.44 418.111,94.77 C397.406624,74.1 373.184333,57.8175 345.447958,45.9225 C317.709667,34.0275 288.019,28.08 256.375,28.08 L256.375,28.08 Z" id="Shape"></path>
                </g>
                <g id="social-2">
                    <g id="Group">
                        <path d="M292.6665,337.180985 C292.6665,312.020515 278.092103,299.615471 262.049956,286.114015 L248.921515,275.900118 C244.910559,272.635191 239.454485,268.252059 239.454485,260.230985 C239.454485,252.209074 244.934029,247.102544 249.667544,242.369029 C264.9645,230.337 280.284926,217.581574 280.284926,190.602971 C280.284926,162.8775 262.772515,148.303941 254.401897,141.378441 L254.401897,141.378441 L276.997368,141.378441 L300.315397,128.25 L225.207,128.25 C205.526074,128.25 180.739456,131.165382 159.939485,148.303941 C144.270353,161.781926 136.621456,180.389912 136.621456,197.155456 C136.621456,225.580853 158.493529,254.401897 197.131985,254.401897 C200.793397,254.401897 204.780882,254.028882 208.814471,253.6785 C206.9955,258.062471 205.176529,261.699574 205.176529,267.903353 C205.176529,279.189353 211.006456,286.137485 216.112985,292.689971 C199.720456,293.786382 169.080441,295.605353 146.484971,309.455515 C124.962441,322.210941 118.409956,340.818926 118.409956,353.946529 C118.409956,380.925971 143.943441,406.085603 196.805912,406.085603 C259.484956,406.086441 292.6665,371.435471 292.6665,337.180985 L292.6665,337.180985 Z M214.270544,244.211471 C182.907971,244.211471 168.683956,203.731412 168.683956,179.316971 C168.683956,169.826471 170.502926,160.009059 176.705029,152.337529 C182.534956,145.039015 192.748015,140.282029 202.238515,140.282029 C232.505515,140.282029 248.175485,181.135941 248.175485,207.368515 C248.175485,213.944471 247.452926,225.603485 239.058,233.997574 C233.228074,239.8275 223.388029,244.188 214.270544,244.211471 L214.270544,244.211471 Z M214.643559,390.766015 C175.632088,390.766015 150.471618,372.1815 150.471618,346.298471 C150.471618,320.415441 173.813118,311.670132 181.835029,308.756426 C197.154618,303.649059 216.835544,302.903868 220.123103,302.903868 C223.761044,302.903868 225.580015,302.903868 228.494559,303.276882 C256.220029,322.957809 268.228588,332.797853 268.228588,351.405 C268.228588,374.000471 249.644074,390.766015 214.643559,390.766015 L214.643559,390.766015 Z" id="Shape"></path>
                        <path d="M295.954059,266.364353 L335.431588,266.364353 L335.431588,305.818412 L355.159456,305.818412 L355.159456,266.364353 L394.614353,266.364353 L394.614353,246.636485 L355.159456,246.636485 L355.159456,207.182426 L335.431588,207.182426 L335.431588,246.636485 L295.954059,246.636485 L295.954059,266.364353 Z" id="Shape"></path>
                    </g>
                </g>
            </g>
        </g>
    </g>
</svg>