<?xml version="1.0" encoding="UTF-8" standalone="no"?>
<svg width="514px" height="513px" viewBox="0 0 514 513" version="1.1" xmlns="http://www.w3.org/2000/svg" xmlns:xlink="http://www.w3.org/1999/xlink" xmlns:sketch="http://www.bohemiancoding.com/sketch/ns">
    <!-- Generator: Sketch 3.3.3 (12081) - http://www.bohemiancoding.com/sketch -->
    <title>social</title>
    <desc>Created with Sketch.</desc>
    <defs></defs>
    <g id="Page-1" stroke="none" stroke-width="1" fill="none" fill-rule="evenodd" sketch:type="MSPage">
        <g id="social" sketch:type="MSLayerGroup" fill="#000000">
            <g id="Group" sketch:type="MSShapeGroup">
                <g id="github" transform="translate(0.385621, 0.323529)">
                    <path d="M256.375,0 C291.925667,0 325.23,6.7275 356.287042,20.1825 C387.347915,33.6375 414.497333,51.9675 437.741042,75.1725 C460.986667,98.3775 479.348,125.4825 492.826,156.4875 C506.30017,187.4925 513.040127,220.74 513.040127,256.23 C513.040127,291.719044 506.30017,324.968456 492.826,355.9725 C479.348,386.979412 460.986667,414.081544 437.741042,437.2875 C414.497333,460.491544 387.346,478.821544 356.287042,492.276544 C325.229042,505.731544 291.925667,512.458088 256.375,512.458088 C220.824333,512.458088 187.52,505.731544 156.462,492.278456 C125.404,478.823456 98.2526667,460.493456 75.008,437.289412 C51.7633333,414.083456 33.4996667,386.978456 20.217,355.974412 C6.93433333,324.968456 0.293,291.72 0.293,256.23 C0.293,220.74 6.93433333,187.4925 20.217,156.4875 C33.4996667,125.4825 51.7633333,98.3775 75.008,75.1725 C98.2526667,51.9675 125.404,33.6375 156.462,20.1825 C187.52,6.7275 220.824333,0 256.375,0 L256.375,0 Z M256.375,28.08 C224.731,28.08 195.040333,34.0275 167.303,45.9225 C139.565667,57.8175 115.344333,74.1 94.639,94.77 C73.9336667,115.44 57.6233333,139.62 45.708,167.31 C33.7926667,195 27.835,224.64 27.835,256.23 C27.835,287.819044 33.7926667,317.459044 45.708,345.15 C57.6233333,372.840956 73.9336667,397.02 94.639,417.690956 C115.344333,438.36 139.565667,454.643456 167.303,466.538456 C195.040333,478.4325 224.731,484.380956 256.375,484.380956 C288.019,484.380956 317.709667,478.4325 345.447958,466.538456 C373.184333,454.646324 397.406624,438.36 418.111,417.690956 C438.817291,397.02 455.126667,372.840956 467.042,345.15 C478.958291,317.457132 484.915,287.817132 484.915,256.23 C484.915,224.641912 478.958291,195 467.042,167.31 C455.129539,139.62 438.817291,115.44 418.111,94.77 C397.406624,74.1 373.184333,57.8175 345.447958,45.9225 C317.709667,34.0275 288.019,28.08 256.375,28.08 L256.375,28.08 Z" id="Shape"></path>
                </g>
            </g>
            <g id="picture" transform="translate(130.000000, 129.000000)" sketch:type="MSShapeGroup">
                <g id="Group">
                    <path d="M219.513807,0 L34.4861931,0 C15.4703517,0 0,15.5921655 0,34.7577379 L0,221.242262 C0,240.408717 15.4703517,256 34.4861931,256 L219.513807,256 C238.529648,256 254,240.408717 254,221.242262 L254,34.7577379 C254,15.5921655 238.529648,0 219.513807,0 L219.513807,0 Z M127,190.539917 C95.6774207,190.539917 70.1950897,164.856938 70.1950897,133.287724 C70.1950897,101.719393 95.6782966,76.035531 127,76.035531 C158.321703,76.035531 183.80491,101.719393 183.80491,133.287724 C183.80491,164.856938 158.322579,190.539917 127,190.539917 L127,190.539917 Z M232.494959,91.0256552 L181.172069,91.0256552 C168.216317,75.3937655 148.741524,65.4318345 127,65.4318345 C105.258476,65.4318345 85.7836828,75.3946483 72.827931,91.0256552 L21.5050414,91.0256552 L21.5050414,41.3166345 C21.5050414,28.6817103 31.7044552,18.402869 44.240669,18.402869 L209.760207,18.402869 C222.296421,18.402869 232.495834,28.6817103 232.495834,41.3166345 L232.495834,91.0256552 L232.494959,91.0256552 Z" id="Shape"></path>
                    <path d="M127,96.4819862 C106.864807,96.4819862 90.4818069,112.993103 90.4818069,133.286841 C90.4818069,153.581462 106.863931,170.091697 127,170.091697 C147.136069,170.091697 163.518193,153.581462 163.518193,133.286841 C163.518193,112.993103 147.135193,96.4819862 127,96.4819862 L127,96.4819862 Z" id="Shape"></path>
                    <path d="M204.503283,33.0955034 L182.525276,33.0955034 C177.502207,33.0955034 173.415434,37.2153379 173.415434,42.2779586 L173.415434,64.4290207 C173.415434,69.4916414 177.501331,73.6105931 182.525276,73.6105931 L204.503283,73.6105931 C209.526352,73.6105931 213.613124,69.4925241 213.613124,64.4290207 L213.613124,42.2779586 C213.613124,37.2144552 209.526352,33.0955034 204.503283,33.0955034 L204.503283,33.0955034 Z" id="Shape"></path>
                </g>
            </g>
        </g>
    </g>
</svg>