<?xml version="1.0" encoding="UTF-8" standalone="no"?>
<svg width="536px" height="537px" viewBox="0 0 536 537" version="1.1" xmlns="http://www.w3.org/2000/svg" xmlns:xlink="http://www.w3.org/1999/xlink" xmlns:sketch="http://www.bohemiancoding.com/sketch/ns">
    <!-- Generator: Sketch 3.3.3 (12081) - http://www.bohemiancoding.com/sketch -->
    <title>social</title>
    <desc>Created with Sketch.</desc>
    <defs></defs>
    <g id="Page-1" stroke="none" stroke-width="1" fill="none" fill-rule="evenodd" sketch:type="MSPage">
        <g id="social" sketch:type="MSLayerGroup" fill="#000000">
            <g id="Group" sketch:type="MSShapeGroup">
                <path d="M396,183.922 C391.688,186.484 378.752,191.593 366.688,192.875 C374.423,188.384 385.876,173.672 388.704,161.985 C381.268,167.094 364.188,174.547 355.754,174.547 C355.754,174.547 355.754,174.57 355.77,174.586 C346.141,163.75 332.608,157 317.577,157 C288.423,157 264.767,182.461 264.767,213.875 C264.767,218.235 265.248,222.47 266.124,226.547 L266.107,226.547 C226.545,225.453 180.296,204.101 154.233,167.547 C138.233,197.399 152.077,230.593 170.248,242.688 C164.045,243.204 152.577,241.922 147.187,236.281 C146.812,256.078 155.671,282.329 187.922,291.843 C181.701,295.453 170.732,294.422 165.938,293.624 C167.625,310.374 189.375,332.247 213.14,332.247 C204.67,342.781 175.767,361.953 139.999,355.843 C164.298,371.782 192.625,381 222.608,381 C307.813,381 373.984,306.641 370.422,214.907 C370.422,214.797 370.391,214.688 370.391,214.594 C370.391,214.344 370.422,214.094 370.422,213.875 C370.422,213.594 370.391,213.313 370.391,213.016 C378.141,207.328 388.546,197.234 396,183.922 L396,183.922 Z" id="Shape"></path>
                <g id="github">
                    <path d="M267.75,0 C304.878,0 339.66,7.038 372.095,21.114 C404.534,35.19 432.888,54.366 457.163,78.642 C481.44,102.918 500.616,131.274 514.692,163.71 C528.764,196.146 535.803,230.928 535.803,268.056 C535.803,305.183 528.764,339.967 514.692,372.402 C500.616,404.84 481.44,433.193 457.163,457.47 C432.888,481.745 404.532,500.921 372.095,514.997 C339.659,529.073 304.878,536.11 267.75,536.11 C230.622,536.11 195.84,529.073 163.404,514.999 C130.968,500.923 102.612,481.747 78.336,457.472 C54.06,433.195 34.986,404.839 21.114,372.404 C7.242,339.967 0.306,305.184 0.306,268.056 C0.306,230.928 7.242,196.146 21.114,163.71 C34.986,131.274 54.06,102.918 78.336,78.642 C102.612,54.366 130.968,35.19 163.404,21.114 C195.84,7.038 230.622,0 267.75,0 L267.75,0 Z M267.75,29.376 C234.702,29.376 203.694,35.598 174.726,48.042 C145.758,60.486 120.462,77.52 98.838,99.144 C77.214,120.768 60.18,146.064 47.736,175.032 C35.292,204 29.07,235.008 29.07,268.056 C29.07,301.103 35.292,332.111 47.736,361.08 C60.18,390.049 77.214,415.344 98.838,436.969 C120.462,458.592 145.758,475.627 174.726,488.071 C203.694,500.514 234.702,506.737 267.75,506.737 C300.798,506.737 331.806,500.514 360.775,488.071 C389.742,475.63 415.039,458.592 436.662,436.969 C458.287,415.344 475.32,390.049 487.764,361.08 C500.209,332.109 506.43,301.101 506.43,268.056 C506.43,235.01 500.209,204 487.764,175.032 C475.323,146.064 458.287,120.768 436.662,99.144 C415.039,77.52 389.742,60.486 360.775,48.042 C331.806,35.598 300.798,29.376 267.75,29.376 L267.75,29.376 Z" id="Shape"></path>
                </g>
            </g>
        </g>
    </g>
</svg>